<?xml version="1.0" standalone="no"?><!-- Generator: Gravit.io --><svg xmlns="http://www.w3.org/2000/svg" xmlns:xlink="http://www.w3.org/1999/xlink" style="isolation:isolate" viewBox="1010 344.308 80 67.692" width="80" height="67.692"><g><circle vector-effect="non-scaling-stroke" cx="0" cy="0" r="1" transform="matrix(4.615,0,0,4.615,1071.538,387.385)" fill="rgb(255,255,255)"/><circle vector-effect="non-scaling-stroke" cx="0" cy="0" r="1" transform="matrix(4.615,0,0,4.615,1056.154,372)" fill="rgb(255,255,255)"/><path d=" M 1086.923 396.898 L 1086.923 355.077 C 1086.917 353.127 1085.685 351.393 1083.846 350.745 L 1083.846 348.923 C 1083.846 346.378 1081.775 344.308 1079.231 344.308 L 1070 344.308 C 1067.455 344.308 1065.385 346.378 1065.385 348.923 L 1065.385 350.462 L 1064.066 350.462 C 1061.491 350.458 1059.086 351.746 1057.662 353.891 L 1055.162 357.64 C 1054.307 358.924 1052.866 359.694 1051.323 359.692 L 1036.154 359.692 C 1026.823 359.692 1019.231 367.285 1019.231 376.615 L 1019.231 395.077 C 1019.231 395.927 1018.542 396.615 1017.692 396.615 L 1014.615 396.615 C 1012.071 396.615 1010 398.686 1010 401.231 L 1010 407.385 C 1010 409.929 1012.071 412 1014.615 412 L 1085.385 412 C 1087.929 412 1090 409.929 1090 407.385 L 1090 401.231 C 1089.994 399.281 1088.762 397.547 1086.923 396.898 Z  M 1068.462 348.923 C 1068.462 348.073 1069.15 347.385 1070 347.385 L 1079.231 347.385 C 1080.08 347.385 1080.769 348.073 1080.769 348.923 L 1080.769 350.462 L 1068.462 350.462 L 1068.462 348.923 Z  M 1022.308 395.077 L 1022.308 393.538 L 1037.692 393.538 L 1037.692 390.462 L 1022.308 390.462 L 1022.308 387.385 L 1031.538 387.385 L 1031.538 384.308 L 1022.308 384.308 L 1022.308 376.615 C 1022.308 368.98 1028.518 362.769 1036.154 362.769 L 1051.323 362.769 C 1053.895 362.772 1056.297 361.486 1057.72 359.345 L 1060.22 355.595 C 1061.077 354.309 1062.521 353.537 1064.066 353.538 L 1082.308 353.538 C 1083.157 353.538 1083.846 354.227 1083.846 355.077 L 1083.846 396.615 L 1022.025 396.615 C 1022.197 396.132 1022.308 395.62 1022.308 395.077 Z  M 1086.923 407.385 C 1086.923 408.234 1086.234 408.923 1085.385 408.923 L 1014.615 408.923 C 1013.766 408.923 1013.077 408.234 1013.077 407.385 L 1013.077 401.231 C 1013.077 400.381 1013.766 399.692 1014.615 399.692 L 1085.385 399.692 C 1086.234 399.692 1086.923 400.381 1086.923 401.231 L 1086.923 407.385 Z " fill="rgb(255,255,255)"/><rect x="1016.154" y="402.769" width="67.692" height="3.077" transform="matrix(1,0,0,1,0,0)" fill="rgb(255,255,255)"/><path d=" M 1071.538 381.231 C 1068.678 381.231 1066.291 383.198 1065.603 385.846 L 1059.231 385.846 C 1058.381 385.846 1057.692 385.157 1057.692 384.308 L 1057.692 377.935 C 1060.338 377.248 1062.308 374.86 1062.308 372 C 1062.308 368.606 1059.548 365.846 1056.154 365.846 C 1052.76 365.846 1050 368.606 1050 372 C 1050 374.86 1051.969 377.248 1054.615 377.935 L 1054.615 384.308 C 1054.615 386.852 1056.686 388.923 1059.231 388.923 L 1065.603 388.923 C 1066.291 391.571 1068.678 393.538 1071.538 393.538 C 1074.932 393.538 1077.692 390.778 1077.692 387.385 C 1077.692 383.991 1074.932 381.231 1071.538 381.231 Z  M 1053.077 372 C 1053.077 370.303 1054.457 368.923 1056.154 368.923 C 1057.851 368.923 1059.231 370.303 1059.231 372 C 1059.231 373.697 1057.851 375.077 1056.154 375.077 C 1054.457 375.077 1053.077 373.697 1053.077 372 Z  M 1071.538 390.462 C 1069.842 390.462 1068.462 389.082 1068.462 387.385 C 1068.462 385.688 1069.842 384.308 1071.538 384.308 C 1073.235 384.308 1074.615 385.688 1074.615 387.385 C 1074.615 389.082 1073.235 390.462 1071.538 390.462 Z " fill="rgb(255,255,255)"/><rect x="1045.385" y="353.538" width="4.615" height="3.077" transform="matrix(1,0,0,1,0,0)" fill="rgb(255,255,255)"/><path d=" M 1036.154 356.615 L 1039.231 356.615 L 1039.231 353.538 L 1036.154 353.538 C 1033.954 353.537 1031.765 353.85 1029.654 354.468 L 1030.522 357.418 C 1032.351 356.884 1034.248 356.614 1036.154 356.615 Z " fill="rgb(255,255,255)"/><path d=" M 1016.154 376.615 C 1016.154 374.691 1016.426 372.791 1016.962 370.965 L 1014.008 370.098 C 1013.389 372.215 1013.076 374.41 1013.077 376.615 L 1013.077 379.692 L 1016.154 379.692 L 1016.154 376.615 Z " fill="rgb(255,255,255)"/><path d=" M 1025.348 359.785 L 1023.683 357.197 C 1020.906 358.99 1018.542 361.352 1016.746 364.128 L 1019.331 365.795 C 1020.889 363.389 1022.939 361.34 1025.348 359.785 Z " fill="rgb(255,255,255)"/><rect x="1013.077" y="385.846" width="3.077" height="4.615" transform="matrix(1,0,0,1,0,0)" fill="rgb(255,255,255)"/></g></svg>