<?xml version="1.0" standalone="no"?><!-- Generator: Gravit.io --><svg xmlns="http://www.w3.org/2000/svg" xmlns:xlink="http://www.w3.org/1999/xlink" style="isolation:isolate" viewBox="688.75 473.957 9.091 40" width="9.091" height="40"><path d=" M 697.841 478.503 C 697.841 481.048 695.841 483.048 693.295 483.048 C 690.75 483.048 688.75 481.048 688.75 478.503 C 688.75 475.957 690.75 473.957 693.295 473.957 C 695.841 473.957 697.841 475.957 697.841 478.503 Z  M 693.295 489.412 C 690.75 489.412 688.75 491.412 688.75 493.957 C 688.75 496.503 690.75 498.503 693.295 498.503 C 695.841 498.503 697.841 496.503 697.841 493.957 C 697.841 491.412 695.841 489.412 693.295 489.412 Z  M 693.295 504.866 C 690.75 504.866 688.75 506.866 688.75 509.412 C 688.75 511.957 690.75 513.957 693.295 513.957 C 695.841 513.957 697.841 511.957 697.841 509.412 C 697.841 506.866 695.841 504.866 693.295 504.866 Z " fill="rgb(255,255,255)"/></svg>